<?xml version="1.0" encoding="UTF-8"?>
<svg id="Layer_1" data-name="Layer 1" xmlns="http://www.w3.org/2000/svg" viewBox="0 0 164.87 162.79">
  <defs>
    <style>
      .cls-1 {
        fill: #e7671a;
      }
    </style>
  </defs>
  <path class="cls-1" d="M147.31,30.09c51.24,51.21-20.59,126.95-75.73,79.67,52.15,11.7,91.69-28.92,75.74-79.67h0Z"/>
  <path class="cls-1" d="M30.83,3.9c29.08,19.8,50.53-3.08,66.93,45.98,0,0-8.74-7.89-16.23-12.39-19.61-11.77-46.96-3.89-50.7-33.59h0Z"/>
  <path class="cls-1" d="M.03,94.07C-1.58,47.27,54.82,19.86,91.89,52.75,65.11,42.72,17.17,55.84.03,94.07h0Z"/>
  <path class="cls-1" d="M26.22,139.87c-41.23-24.34-9.46-67.98,15.11-76.81-17.22,16.2-33.18,49.23-15.11,76.81h0Z"/>
  <path class="cls-1" d="M104.89,158.35C36.42,183.13-5.81,97.73,58.15,58.79c-36.9,46.92-1.93,98.74,46.74,99.56h0Z"/>
  <path class="cls-1" d="M160.71,104.69c-14.12,69.62-121.87,55.85-110.68-19.13,18.8,52.46,78.92,63.61,110.68,19.13h0Z"/>
  <path class="cls-1" d="M103.85,0c34.05,26.51,26.25,87.17-13,104.5,61.84.71,72.44-90.67,13-104.5Z"/>
</svg>