<?xml version="1.0" encoding="UTF-8"?><svg id="Layer_1" xmlns="http://www.w3.org/2000/svg" viewBox="0 0 1272 320"><defs><style>.cls-1{fill:#e7671a;stroke-width:0px;}</style></defs><path class="cls-1" d="m172.51,202.97h-48.95l-14.88,37.03h-28.9l67.92-160h27.6l68.14,160h-29.33l-4.57-11.22c-6.39-15.66-20.94-25.81-37.04-25.81Zm17.25-23.31l-28.46-69.94-28.25,69.94h56.71Z"/><path class="cls-1" d="m456.8,174.02v65.98h-26.95v-62.53c0-20.49-9.49-30.4-25.88-30.4-17.68,0-29.97,11.64-29.97,34.5v58.44h-26.95v-62.53c0-20.49-9.49-30.4-25.88-30.4-17.9,0-29.97,11.64-29.97,34.5v58.44h-26.95v-115.15h11c8.1,0,14.66,6.56,14.66,14.66h0c8.63-10.35,21.99-15.96,37.74-15.96,16.82,0,30.84,6.25,38.81,19.19,9.27-11.86,24.8-19.19,43.13-19.19,27.82,0,47.22,15.74,47.22,50.46Z"/><path class="cls-1" d="m680.33,174.02v65.98h-26.95v-62.53c0-20.49-9.49-30.4-25.88-30.4-17.68,0-29.97,11.64-29.97,34.5v58.44h-26.95v-62.53c0-20.49-9.49-30.4-25.88-30.4-17.9,0-29.97,11.64-29.97,34.5v58.44h-26.95v-115.15h11c8.1,0,14.66,6.56,14.66,14.66h0c8.63-10.35,21.99-15.96,37.74-15.96,16.82,0,30.84,6.25,38.81,19.19,9.27-11.86,24.8-19.19,43.13-19.19,27.82,0,47.22,15.74,47.22,50.46Z"/><path class="cls-1" d="m706.41,180.92c0-34.5,25.88-58.87,61.24-58.87s61.46,24.37,61.46,58.87-25.66,59.08-61.46,59.08-61.24-24.58-61.24-59.08Zm95.53,0c0-21.99-14.66-36.01-34.29-36.01s-34.07,14.02-34.07,36.01,14.66,36.01,34.07,36.01,34.29-14.02,34.29-36.01Z"/><path class="cls-1" d="m921.61,123.56v25.66c-2.37-.43-4.31-.65-6.25-.65-20.49,0-33.42,12.08-33.42,35.58v55.85h-26.95v-115.15h25.66v16.82c7.76-12.08,21.78-18.11,40.97-18.11Z"/><path class="cls-1" d="m1014.69,232.24c-6.47,5.18-16.17,7.76-25.88,7.76-25.23,0-39.68-13.37-39.68-38.81v-103.29h26.95v26.31h30.84v21.56h-30.84v54.77c0,11.21,5.61,17.25,15.96,17.25,5.61,0,11-1.51,15.09-4.74l7.55,19.19Z"/><path class="cls-1" d="m1135.32,171v67.49h-25.44v-14.02c-6.47,9.92-18.98,15.53-36.23,15.53-26.31,0-42.91-14.45-42.91-34.5s12.94-34.29,47.87-34.29h29.76v-1.73c0-15.74-9.49-25.01-28.68-25.01-12.94,0-26.31,4.31-34.93,11.43l-10.57-19.62c12.29-9.49,30.19-14.23,48.73-14.23,33.21,0,52.4,15.74,52.4,48.95Zm-26.95,20.25v-2.13s-27.82,0-27.82,0c-18.33,0-23.29,6.9-23.29,15.31,0,9.7,8.19,15.96,21.99,15.96.33,0,.66,0,.98-.01,15.7-.36,28.13-13.42,28.13-29.12Z"/><path class="cls-1" d="m1165.26,80h26.95v160h-26.95V80Z"/></svg>